<svg xmlns="http://www.w3.org/2000/svg" version="1.1" xmlns:xlink="http://www.w3.org/1999/xlink" xmlns:svgjs="http://svgjs.dev/svgjs" width="1000" height="1125" viewBox="0 0 1000 1125"><g transform="matrix(1,0,0,1,1.7053025658242404e-13,0)"><svg viewBox="0 0 320 360" data-background-color="#ffffff" preserveAspectRatio="xMidYMid meet" height="1125" width="1000" xmlns="http://www.w3.org/2000/svg" xmlns:xlink="http://www.w3.org/1999/xlink"><g id="tight-bounds" transform="matrix(1,0,0,1,0,0)"><svg viewBox="0 0 320 360" height="360" width="320"><g><svg></svg></g><g><svg viewBox="0 0 320 360" height="360" width="320"><g><path xmlns="http://www.w3.org/2000/svg" d="M20.961 227.22l3.726 4.658-1.863-6.056c-0.466-2.795-3.726 0.466-1.863 1.398M25.153 224.425c1.397 2.329 2.795 4.658 2.795 6.987 0 3.261 2.795 4.658 5.123 5.589-3.261-3.726-5.124-13.974-7.918-12.576M204.017 26.929c7.918 0 15.371-0.932 23.756 0.931 20.495 5.124 37.729 15.371 49.374 29.811l32.606 52.169c1.397 13.042 4.192 27.482 3.726 43.319 3.261 0 2.795-4.658 6.521-5.59-3.726 9.316-5.59 20.961-6.521 34.469-2.329-7.453 0-18.632 0.466-24.687-3.261 5.124-5.124 1.397-5.124-0.932 0.466-3.726-1.397-3.261-2.795-4.658-5.124-4.658-8.384-9.782-12.11-17.7 2.329-6.055 2.795-14.905-4.658-19.563-2.329-1.397-5.124-3.726-6.521-7.453-1.863-5.124-5.124-11.179-4.193-19.097 0.466-2.329-6.987 5.124-11.179 1.863-18.166-12.576-36.332-27.016-58.224-39.127-11.645 0-20.029-4.192-24.221-9.316-3.726-4.658-0.932-10.713 4.658-11.179 3.261 0 6.987-0.932 9.782 0.932 0.466-1.863 2.329-4.192 4.657-4.192M157.904 16.215l0.932 0.466c4.658 0.932 6.987 7.453 12.11 5.124 0 3.261 0.466 6.521-0.466 8.85-1.397 3.726-5.59 3.726-8.85 3.726-31.208-1.863-49.374 11.179-68.471 22.358-5.124 3.261-10.713 5.59-14.906 9.782-20.029 18.632-41.921 35.866-47.045 70.335l-4.192 38.195c-0.466 4.192-5.124 8.384-4.192 13.508l3.26 22.824c-3.261-3.261-5.124 0.932-4.192 2.795 0.466 1.397 2.329 6.055 5.124 1.863 3.726 6.987 7.453 20.495 12.576 26.55 15.837 18.632 36.332 35.4 53.101 52.169 4.192-0.932 7.453-0.932 8.384-3.727 1.397 2.795-1.397 5.59-3.726 6.056 7.453 4.658 15.837 8.85 27.016 9.781 14.44 0.932 27.948 3.261 40.524 6.522 6.521-1.863 13.042-2.795 20.029-3.261 2.329 0 3.726-3.726 6.521-4.658l0.466-4.658c2.795 4.192 2.329-1.397 0.466-4.192 3.261 2.795 4.192 5.124 5.589 6.987 0-1.397 3.726-6.521 3.727-0.466l0.931-6.055c1.397-0.932 1.863 5.124 3.261 0.931 1.397-4.192 4.192-0.932 6.987-2.329-0.932 1.863-0.466 5.59 2.794 3.261l3.727-3.261c2.329 5.59 6.055 3.261 7.918 2.329 20.495-13.042 40.99-28.413 60.553-43.784l-0.466 6.055 2.329-7.453c2.329 2.329 4.192 0.466 5.124-0.931 2.795-4.658 6.521-9.316 12.577-13.508-7.453 20.029-16.303 35.866-27.482 48.908l-4.658 5.59c0 3.261-0.932 7.453-4.658 7.918-1.863 0.466-5.59-0.932-8.384 1.863-1.397 1.863 3.261 5.59-0.466 2.795-3.261-2.329-6.521 0-10.248 0.932-2.795 0.932 1.863 3.726 2.795 5.589 0.932 1.863 1.863 3.726 1.398 6.056l-5.124-5.59c-6.055 3.261-9.782 9.316-14.906 13.974-2.329 1.863-1.397 5.124-1.397 7.918-3.261 0-6.987-0.932-8.85 0.932-1.397 1.863-0.932 4.658-0.932 7.453-4.658-0.466-5.124-7.453-9.315-6.056-4.192 0.932-8.85 1.397-12.577 3.727 2.795 5.59-4.658 2.329-3.726 3.26-6.987-4.192-13.042-7.453-20.495-4.658-15.837-5.124-35.4-2.795-49.84-0.931 0-2.329 0.466-4.658-0.466-5.124-0.932 2.329-3.726 1.397-3.26 1.397-8.85-6.055-17.7-9.782-27.016-14.905-8.384 0.932-16.303-3.261-18.632-5.59-6.521-6.055-13.974-2.795-20.029-4.192-13.042-3.261-17.7-16.769-19.098-26.084-0.932-4.658-4.658-6.521-6.055-6.056-6.055-19.563-15.371-37.263-22.824-55.429-1.863-4.658-1.397-9.316-1.397-14.44 2.329 0.932 4.658 0.466 4.192-2.794-2.329-15.371-7.918-27.016-13.974-38.195 3.261-15.837 3.726-34.469 11.179-48.443 6.521-12.576 18.632-19.098 27.016-29.811 2.795-3.726 2.795-8.85 5.59-12.11 9.316-9.316 18.632-19.098 28.879-27.482 4.658-3.726 10.247 0 17.234-1.397 2.329-8.384 11.645-15.837 20.495-13.508 3.726 0.932 11.179-8.85 13.508-9.782 3.726-1.397 1.863 3.726 1.863 6.987 8.85-6.987 20.961-10.713 32.14-14.906" fill="#bb84e8" fill-rule="nonzero" stroke="none" stroke-width="1" stroke-linecap="butt" stroke-linejoin="miter" stroke-miterlimit="10" stroke-dasharray="" stroke-dashoffset="0" font-family="none" font-weight="none" font-size="none" text-anchor="none" style="mix-blend-mode: normal" data-fill-palette-color="tertiary"></path></g><g transform="matrix(1,0,0,1,64,154.43026346533418)"><svg viewBox="0 0 192 51.13947306933167" height="51.13947306933167" width="192"><g><svg viewBox="0 0 192 51.13947306933167" height="51.13947306933167" width="192"><g><svg viewBox="0 0 192 51.13947306933167" height="51.13947306933167" width="192"><g><svg viewBox="0 0 192 51.13947306933167" height="51.13947306933167" width="192"><g id="textblocktransform"><svg viewBox="0 0 192 51.13947306933167" height="51.13947306933167" width="192" id="textblock"><g><svg viewBox="0 0 192 28.991880074953155" height="28.991880074953155" width="192"><g transform="matrix(1,0,0,1,0,0)"><svg width="192" viewBox="2.1500000953674316 -36.45000076293945 320.1700134277344 48.349998474121094" height="28.991880074953155" data-palette-color="#bb84e8"><path d="M11.3 0.6Q6.65 0.6 4.4-1.15 2.15-2.9 2.15-5.65L2.15-5.65Q2.15-8.2 4.4-7.9L4.4-7.9Q4.1-7.1 4.1-6.15L4.1-6.15Q4.15-3.55 6.08-2.23 8-0.9 11.3-0.9L11.3-0.9Q14.7-0.9 16.75-2.1 18.8-3.3 18.8-5.45L18.8-5.45Q18.8-6.85 18.05-7.8 17.3-8.75 16.2-9.38 15.1-10 13.1-10.9L13.1-10.9Q11.7-11.5 11-11.85L11-11.85Q10.55-12.05 8.13-13.23 5.7-14.4 4.5-16.05 3.3-17.7 3.3-19.9L3.3-19.9Q3.3-22.9 5.63-24.33 7.95-25.75 11.65-25.75L11.65-25.75Q15.7-25.75 17.88-24.4 20.05-23.05 20.05-20.65L20.05-20.65Q20.05-19.3 19.1-18.9L19.1-18.9Q18.8-18.8 18.55-18.8L18.55-18.8Q18.35-18.8 17.85-18.9L17.85-18.9Q18.15-19.6 18.05-20.35L18.05-20.35Q18-22.3 16.28-23.28 14.55-24.25 11.5-24.25L11.5-24.25Q8.9-24.25 7.18-23.3 5.45-22.35 5.45-20.3L5.45-20.3Q5.45-18.6 6.33-17.45 7.2-16.3 8.38-15.63 9.55-14.95 12.15-13.75L12.15-13.75 13.8-13Q16.2-11.95 17.6-11.13 19-10.3 19.98-9 20.95-7.7 20.95-5.85L20.95-5.85Q20.95-3.2 18.75-1.3 16.55 0.6 11.3 0.6L11.3 0.6ZM48.9-2.6Q49.4-2.05 49.4-1.4L49.4-1.4Q49.4-0.55 48.6-0.03 47.8 0.5 46.7 0.5L46.7 0.5Q44.9 0.5 44-0.7 43.1-1.9 43.1-4.15L43.1-4.15 43.1-7.8Q41.3-3.85 38.22-1.63 35.15 0.6 31.7 0.6L31.7 0.6Q28.85 0.6 27.3-1 25.75-2.6 25.75-5.15L25.75-5.15Q25.75-7.95 27.77-9.98 29.8-12 33.7-13.05L33.7-13.05Q36.7-13.85 40.5-13.85L40.5-13.85Q42.25-13.85 43.05-13.75L43.05-13.75 43.05-15.05Q43.05-19.7 41.2-21.95 39.35-24.2 35.3-24.2L35.3-24.2Q32.65-24.2 30.77-23.25 28.9-22.3 28.9-19.95L28.9-19.95Q28.9-18.85 29.52-17.8 30.15-16.75 31.3-16.45L31.3-16.45Q31-16 30.55-15.8 30.1-15.6 29.7-15.6L29.7-15.6Q28.5-15.6 27.65-16.93 26.8-18.25 26.8-19.8L26.8-19.8Q26.8-22.75 29.12-24.23 31.45-25.7 35.6-25.7L35.6-25.7Q40.45-25.7 42.82-23.03 45.2-20.35 45.2-15L45.2-15 45.2-4Q45.2-1.35 47.1-1.35L47.1-1.35Q47.6-1.35 48.1-1.7 48.6-2.05 48.9-2.6L48.9-2.6ZM32.4-1.1Q34.75-1.1 37.22-2.8 39.7-4.5 41.37-7.15 43.05-9.8 43.1-12.55L43.1-12.55Q42.6-12.6 41.5-12.6L41.5-12.6Q39.6-12.6 37.5-12.33 35.4-12.05 33.95-11.6L33.95-11.6Q31.05-10.7 29.52-9.15 28-7.6 28-5.4L28-5.4Q28-3.55 29.07-2.33 30.15-1.1 32.4-1.1L32.4-1.1ZM89.3-4.7Q89.3-1.35 89.7-0.1L89.7-0.1Q89.15 0.45 88.45 0.45L88.45 0.45Q87.9 0.45 87.57 0.08 87.25-0.3 87.25-0.95L87.25-0.95 87.2-14.95Q87.2-19.6 85.84-21.85 84.5-24.1 81.25-24.1L81.25-24.1Q79.5-24.1 77.8-23.05 76.09-22 74.87-19.55 73.65-17.1 73.55-13.2L73.55-13.2 73.59-4.7Q73.59-1.35 74-0.1L74-0.1Q73.45 0.45 72.75 0.45L72.75 0.45Q72.2 0.45 71.87 0.08 71.55-0.3 71.55-0.95L71.55-0.95 71.5-14.95Q71.5-19.65 70.15-21.88 68.8-24.1 65.55-24.1L65.55-24.1Q63.75-24.1 62-22.93 60.25-21.75 59.07-19 57.9-16.25 57.9-11.85L57.9-11.85Q57.9-4.9 57.95-2.98 58-1.05 58.3-0.1L58.3-0.1Q57.75 0.45 57.05 0.45L57.05 0.45Q56.5 0.45 56.17 0.08 55.85-0.3 55.85-1L55.85-1 55.8-21.15Q55.8-22.4 55.27-23.1 54.75-23.8 53.8-23.8L53.8-23.8Q53.25-23.8 52.8-23.45 52.35-23.1 52.15-22.5L52.15-22.5Q51.7-23.1 51.7-23.7L51.7-23.7Q51.7-24.55 52.42-25.08 53.15-25.6 54.1-25.6L54.1-25.6Q55.8-25.6 56.8-24.45 57.8-23.3 57.8-21.15L57.8-21.15 57.8-19Q58.8-22.1 61-23.9 63.2-25.7 65.95-25.7L65.95-25.7Q72.2-25.7 73.34-18.95L73.34-18.95Q74.25-22.05 76.5-23.88 78.75-25.7 81.65-25.7L81.65-25.7Q85.59-25.7 87.42-23.03 89.25-20.35 89.25-15.05L89.25-15.05 89.3-4.7ZM116.34-24.3L116.44-2.35Q116.44 11.9 105.44 11.9L105.44 11.9Q102.24 11.9 99.94 10.55 97.64 9.2 97.64 6.45L97.64 6.45Q97.64 5.15 98.17 4.28 98.69 3.4 99.54 3.4L99.54 3.4Q100.29 3.4 100.69 3.95L100.69 3.95Q99.64 4.5 99.64 6.15L99.64 6.15Q99.64 8.45 101.37 9.45 103.09 10.45 105.39 10.45L105.39 10.45Q110.09 10.45 112.19 7.23 114.29 4 114.29-2.95L114.29-2.95 114.34-6.15Q113.29-3 110.94-1.25 108.59 0.5 105.34 0.5L105.34 0.5Q101.69 0.5 99.87-2 98.04-4.5 97.99-10.3L97.99-10.3 97.94-20.6Q97.94-23.8 97.59-25.2L97.59-25.2Q98.09-25.7 98.84-25.7L98.84-25.7Q99.39-25.7 99.72-25.35 100.04-25 100.04-24.35L100.04-24.35 100.09-10.35Q100.09-5.4 101.39-3.28 102.69-1.15 105.69-1.15L105.69-1.15Q109.19-1.15 111.72-4.03 114.24-6.9 114.24-13.45L114.24-13.45Q114.24-20.4 114.19-22.33 114.14-24.25 113.89-25.2L113.89-25.2Q114.39-25.7 115.14-25.7L115.14-25.7Q115.69-25.7 116.02-25.33 116.34-24.95 116.34-24.3L116.34-24.3ZM146.39-2.6Q146.89-2.05 146.89-1.4L146.89-1.4Q146.89-0.55 146.09-0.03 145.29 0.5 144.19 0.5L144.19 0.5Q142.39 0.5 141.49-0.7 140.59-1.9 140.59-4.15L140.59-4.15 140.59-7.8Q138.79-3.85 135.72-1.63 132.64 0.6 129.19 0.6L129.19 0.6Q126.34 0.6 124.79-1 123.24-2.6 123.24-5.15L123.24-5.15Q123.24-7.95 125.27-9.98 127.29-12 131.19-13.05L131.19-13.05Q134.19-13.85 137.99-13.85L137.99-13.85Q139.74-13.85 140.54-13.75L140.54-13.75 140.54-15.05Q140.54-19.7 138.69-21.95 136.84-24.2 132.79-24.2L132.79-24.2Q130.14-24.2 128.27-23.25 126.39-22.3 126.39-19.95L126.39-19.95Q126.39-18.85 127.02-17.8 127.64-16.75 128.79-16.45L128.79-16.45Q128.49-16 128.04-15.8 127.59-15.6 127.19-15.6L127.19-15.6Q125.99-15.6 125.14-16.93 124.29-18.25 124.29-19.8L124.29-19.8Q124.29-22.75 126.62-24.23 128.94-25.7 133.09-25.7L133.09-25.7Q137.94-25.7 140.32-23.03 142.69-20.35 142.69-15L142.69-15 142.69-4Q142.69-1.35 144.59-1.35L144.59-1.35Q145.09-1.35 145.59-1.7 146.09-2.05 146.39-2.6L146.39-2.6ZM129.89-1.1Q132.24-1.1 134.72-2.8 137.19-4.5 138.87-7.15 140.54-9.8 140.59-12.55L140.59-12.55Q140.09-12.6 138.99-12.6L138.99-12.6Q137.09-12.6 134.99-12.33 132.89-12.05 131.44-11.6L131.44-11.6Q128.54-10.7 127.02-9.15 125.49-7.6 125.49-5.4L125.49-5.4Q125.49-3.55 126.57-2.33 127.64-1.1 129.89-1.1L129.89-1.1ZM172.49-2.25Q172.79-1.9 172.79-1.35L172.79-1.35Q172.79-0.5 172.04-0.03 171.29 0.45 170.44 0.45L170.44 0.45Q169.54 0.45 168.76-0.18 167.99-0.8 167.49-1.75L167.49-1.75 162.49-10.9Q158.29-9.3 154.29-8.3L154.29-8.3Q154.29-3.55 154.36-2.27 154.44-1 154.69-0.1L154.69-0.1Q154.04 0.45 153.39 0.45L153.39 0.45Q152.19 0.45 152.19-1L152.19-1 152.14-35.05Q152.14-35.7 152.49-36.08 152.84-36.45 153.44-36.45L153.44-36.45Q154.14-36.45 154.69-35.9L154.69-35.9Q154.39-34.5 154.29-30.95L154.29-30.95 154.24-17.2Q155.39-21.1 158.19-23.4 160.99-25.7 164.79-25.7L164.79-25.7Q167.64-25.7 169.29-24.18 170.94-22.65 170.94-19.9L170.94-19.9Q170.94-17.05 169.01-14.98 167.09-12.9 164.09-11.55L164.09-11.55Q164.54-11.2 164.84-10.73 165.14-10.25 165.19-10.15L165.19-10.15 169.24-2.9Q169.69-2.1 170.06-1.78 170.44-1.45 171.04-1.45L171.04-1.45Q171.94-1.45 172.49-2.25L172.49-2.25ZM154.29-9.65Q158.69-10.9 161.74-12.18 164.79-13.45 166.79-15.33 168.79-17.2 168.79-19.8L168.79-19.8Q168.79-22 167.59-23.05 166.39-24.1 164.39-24.1L164.39-24.1Q161.29-24.1 159.01-22.28 156.74-20.45 155.51-17.18 154.29-13.9 154.29-9.65L154.29-9.65ZM211.53-2.6Q212.03-2.05 212.03-1.4L212.03-1.4Q212.03-0.55 211.23-0.03 210.43 0.5 209.33 0.5L209.33 0.5Q207.53 0.5 206.63-0.7 205.73-1.9 205.73-4.15L205.73-4.15 205.73-7.8Q203.93-3.85 200.86-1.63 197.78 0.6 194.33 0.6L194.33 0.6Q191.48 0.6 189.93-1 188.38-2.6 188.38-5.15L188.38-5.15Q188.38-7.95 190.41-9.98 192.43-12 196.33-13.05L196.33-13.05Q199.33-13.85 203.13-13.85L203.13-13.85Q204.88-13.85 205.68-13.75L205.68-13.75 205.68-15.05Q205.68-19.7 203.83-21.95 201.98-24.2 197.93-24.2L197.93-24.2Q195.28-24.2 193.41-23.25 191.53-22.3 191.53-19.95L191.53-19.95Q191.53-18.85 192.16-17.8 192.78-16.75 193.93-16.45L193.93-16.45Q193.63-16 193.18-15.8 192.73-15.6 192.33-15.6L192.33-15.6Q191.13-15.6 190.28-16.93 189.43-18.25 189.43-19.8L189.43-19.8Q189.43-22.75 191.76-24.23 194.08-25.7 198.23-25.7L198.23-25.7Q203.08-25.7 205.46-23.03 207.83-20.35 207.83-15L207.83-15 207.83-4Q207.83-1.35 209.73-1.35L209.73-1.35Q210.23-1.35 210.73-1.7 211.23-2.05 211.53-2.6L211.53-2.6ZM195.03-1.1Q197.38-1.1 199.86-2.8 202.33-4.5 204.01-7.15 205.68-9.8 205.73-12.55L205.73-12.55Q205.23-12.6 204.13-12.6L204.13-12.6Q202.23-12.6 200.13-12.33 198.03-12.05 196.58-11.6L196.58-11.6Q193.68-10.7 192.16-9.15 190.63-7.6 190.63-5.4L190.63-5.4Q190.63-3.55 191.71-2.33 192.78-1.1 195.03-1.1L195.03-1.1ZM237.93-2.35Q238.43-1.7 238.43-1.1L238.43-1.1Q238.43-0.45 237.81-0.05 237.18 0.35 236.13 0.35L236.13 0.35Q232.98 0.35 232.98-4.25L232.98-4.25 232.98-6.75Q231.73-3.4 229.36-1.4 226.98 0.6 223.53 0.6L223.53 0.6Q218.63 0.6 216.91-2.98 215.18-6.55 215.18-11.2L215.18-11.2Q215.18-18 217.86-21.85 220.53-25.7 225.53-25.7L225.53-25.7Q228.28-25.7 230.21-24.48 232.13-23.25 232.93-21.05L232.93-21.05 232.88-30.75Q232.88-34.65 232.53-35.9L232.53-35.9Q233.08-36.45 233.78-36.45L233.78-36.45Q234.38-36.45 234.73-36.08 235.08-35.7 235.08-35.05L235.08-35.05 235.03-4Q235.03-1.45 236.58-1.45L236.58-1.45Q237.53-1.45 237.93-2.35L237.93-2.35ZM223.88-1.05Q226.58-1.05 228.63-2.8 230.68-4.55 231.81-7.63 232.93-10.7 232.93-14.5L232.93-14.5Q232.93-18.5 231.26-21.3 229.58-24.1 225.43-24.1L225.43-24.1Q221.68-24.1 219.56-20.88 217.43-17.65 217.43-11.3L217.43-11.3Q217.43-1.05 223.88-1.05L223.88-1.05ZM246.23-30.75Q245.43-30.75 244.85-31.33 244.28-31.9 244.28-32.7L244.28-32.7Q244.28-33.5 244.85-34.08 245.43-34.65 246.23-34.65L246.23-34.65Q247.03-34.65 247.6-34.08 248.18-33.5 248.18-32.7L248.18-32.7Q248.18-31.9 247.6-31.33 247.03-30.75 246.23-30.75L246.23-30.75ZM247.48-4.7Q247.48-1.35 247.88-0.1L247.88-0.1Q247.33 0.45 246.63 0.45L246.63 0.45Q246.08 0.45 245.75 0.08 245.43-0.3 245.43-0.95L245.43-0.95 245.33-20.6Q245.33-23.85 244.93-25.2L244.93-25.2Q245.58-25.7 246.18-25.7L246.18-25.7Q246.73-25.7 247.05-25.35 247.38-25 247.38-24.35L247.38-24.35 247.48-4.7ZM263.58-25.1Q265.58-25.1 266.58-25.2L266.58-25.2 266.53-24.4Q266.48-24.05 266.28-23.83 266.08-23.6 265.83-23.6L265.83-23.6 260.18-23.6 260.18-21.4 260.13-4Q260.13-2.7 260.75-1.98 261.38-1.25 262.63-1.25L262.63-1.25Q263.48-1.25 264.23-1.58 264.98-1.9 265.23-2.5L265.23-2.5Q265.73-1.95 265.73-1.35L265.73-1.35Q265.73-0.45 264.73 0.08 263.73 0.6 262.28 0.6L262.28 0.6Q260.28 0.6 259.13-0.58 257.98-1.75 257.98-3.9L257.98-3.9 257.98-23.6 257.28-23.6Q255.58-23.6 254.28-23.5L254.28-23.5 254.33-24.3Q254.38-24.65 254.58-24.88 254.78-25.1 255.03-25.1L255.03-25.1 257.98-25.1 257.98-30.35Q257.98-31 258.33-31.35 258.68-31.7 259.28-31.7L259.28-31.7Q259.93-31.7 260.53-31.2L260.53-31.2Q260.18-30.1 260.18-25.1L260.18-25.1 263.58-25.1ZM291.77-24.3L291.87-2.35Q291.87 11.9 280.87 11.9L280.87 11.9Q277.67 11.9 275.37 10.55 273.07 9.2 273.07 6.45L273.07 6.45Q273.07 5.15 273.6 4.28 274.12 3.4 274.97 3.4L274.97 3.4Q275.72 3.4 276.12 3.95L276.12 3.95Q275.07 4.5 275.07 6.15L275.07 6.15Q275.07 8.45 276.8 9.45 278.52 10.45 280.82 10.45L280.82 10.45Q285.52 10.45 287.62 7.23 289.72 4 289.72-2.95L289.72-2.95 289.77-6.15Q288.72-3 286.37-1.25 284.02 0.5 280.77 0.5L280.77 0.5Q277.12 0.5 275.3-2 273.47-4.5 273.42-10.3L273.42-10.3 273.37-20.6Q273.37-23.8 273.02-25.2L273.02-25.2Q273.52-25.7 274.27-25.7L274.27-25.7Q274.82-25.7 275.15-25.35 275.47-25 275.47-24.35L275.47-24.35 275.52-10.35Q275.52-5.4 276.82-3.28 278.12-1.15 281.12-1.15L281.12-1.15Q284.62-1.15 287.15-4.03 289.67-6.9 289.67-13.45L289.67-13.45Q289.67-20.4 289.62-22.33 289.57-24.25 289.32-25.2L289.32-25.2Q289.82-25.7 290.57-25.7L290.57-25.7Q291.12-25.7 291.45-25.33 291.77-24.95 291.77-24.3L291.77-24.3ZM321.82-2.6Q322.32-2.05 322.32-1.4L322.32-1.4Q322.32-0.55 321.52-0.03 320.72 0.5 319.62 0.5L319.62 0.5Q317.82 0.5 316.92-0.7 316.02-1.9 316.02-4.15L316.02-4.15 316.02-7.8Q314.22-3.85 311.15-1.63 308.07 0.6 304.62 0.6L304.62 0.6Q301.77 0.6 300.22-1 298.67-2.6 298.67-5.15L298.67-5.15Q298.67-7.95 300.7-9.98 302.72-12 306.62-13.05L306.62-13.05Q309.62-13.85 313.42-13.85L313.42-13.85Q315.17-13.85 315.97-13.75L315.97-13.75 315.97-15.05Q315.97-19.7 314.12-21.95 312.27-24.2 308.22-24.2L308.22-24.2Q305.57-24.2 303.7-23.25 301.82-22.3 301.82-19.95L301.82-19.95Q301.82-18.85 302.45-17.8 303.07-16.75 304.22-16.45L304.22-16.45Q303.92-16 303.47-15.8 303.02-15.6 302.62-15.6L302.62-15.6Q301.42-15.6 300.57-16.93 299.72-18.25 299.72-19.8L299.72-19.8Q299.72-22.75 302.05-24.23 304.37-25.7 308.52-25.7L308.52-25.7Q313.37-25.7 315.75-23.03 318.12-20.35 318.12-15L318.12-15 318.12-4Q318.12-1.35 320.02-1.35L320.02-1.35Q320.52-1.35 321.02-1.7 321.52-2.05 321.82-2.6L321.82-2.6ZM305.32-1.1Q307.67-1.1 310.15-2.8 312.62-4.5 314.3-7.15 315.97-9.8 316.02-12.55L316.02-12.55Q315.52-12.6 314.42-12.6L314.42-12.6Q312.52-12.6 310.42-12.33 308.32-12.05 306.87-11.6L306.87-11.6Q303.97-10.7 302.45-9.15 300.92-7.6 300.92-5.4L300.92-5.4Q300.92-3.55 302-2.33 303.07-1.1 305.32-1.1L305.32-1.1Z" opacity="1" transform="matrix(1,0,0,1,0,0)" fill="#bb84e8" class="wordmark-text-0" data-fill-palette-color="primary" id="text-0"></path></svg></g></svg></g><g transform="matrix(1,0,0,1,0,33.22249118301062)"><svg viewBox="0 0 192 17.91698188632105" height="17.91698188632105" width="192"><g transform="matrix(1,0,0,1,0,0)"><svg width="192" viewBox="1.5 -37.150001525878906 507.94000244140625 47.400001525878906" height="17.91698188632105" data-palette-color="#b19dd0"><path d="M9.75-26.7Q13.65-26.7 16.7-23.8L16.7-23.8 15.4-22.1Q13.95-23.3 12.68-23.85 11.4-24.4 9.8-24.4L9.8-24.4Q7.75-24.4 6.48-23.2 5.2-22 5.2-19.9L5.2-19.9Q5.2-18.1 6.33-17 7.45-15.9 10.45-14.8L10.45-14.8Q14.1-13.45 15.7-11.73 17.3-10 17.3-7L17.3-7Q17.3-3.55 15.03-1.5 12.75 0.55 9.35 0.55L9.35 0.55Q4.85 0.55 1.5-2.8L1.5-2.8 3.05-4.4Q4.5-3.1 5.98-2.43 7.45-1.75 9.3-1.75L9.3-1.75Q11.6-1.75 13.03-3.1 14.45-4.45 14.45-6.9L14.45-6.9Q14.45-8.45 13.95-9.43 13.45-10.4 12.25-11.18 11.05-11.95 8.8-12.8L8.8-12.8Q5.35-14.05 3.88-15.7 2.4-17.35 2.4-19.85L2.4-19.85Q2.4-22.8 4.5-24.75 6.6-26.7 9.75-26.7L9.75-26.7ZM40.1-26.7Q44.55-26.7 46.95-23.28 49.35-19.85 49.35-13.15L49.35-13.15Q49.35-6.6 46.88-3.03 44.4 0.55 40.05 0.55L40.05 0.55Q35.7 0.55 33.28-3 30.85-6.55 30.85-13.05L30.85-13.05Q30.85-19.65 33.3-23.18 35.75-26.7 40.1-26.7L40.1-26.7ZM40.1-24.3Q33.8-24.3 33.8-13.05L33.8-13.05Q33.8-1.8 40.05-1.8L40.05-1.8Q46.4-1.8 46.4-13.15L46.4-13.15Q46.4-18.9 44.8-21.6 43.2-24.3 40.1-24.3L40.1-24.3ZM71.91-34.8Q70.11-34.8 69.18-33.88 68.26-32.95 68.26-30.9L68.26-30.9 68.26-26.15 73.91-26.15 73.56-23.85 68.26-23.85 68.26 0 65.46 0 65.46-23.85 61.81-23.85 61.81-26.15 65.46-26.15 65.46-30.95Q65.46-33.8 67.13-35.48 68.81-37.15 71.66-37.15L71.66-37.15Q74.21-37.15 76.76-35.75L76.76-35.75 75.81-33.7Q73.81-34.8 71.91-34.8L71.91-34.8ZM96.66-2.9L97.81-1.1Q95.71 0.55 93.16 0.55L93.16 0.55Q90.61 0.55 89.13-1.05 87.66-2.65 87.66-5.35L87.66-5.35 87.66-23.85 84.16-23.85 84.16-26.15 87.66-26.15 87.66-32.4 90.46-32.75 90.46-26.15 95.96-26.15 95.61-23.85 90.46-23.85 90.46-5.35Q90.46-3.7 91.21-2.78 91.96-1.85 93.46-1.85L93.46-1.85Q95.06-1.85 96.66-2.9L96.66-2.9ZM132.31-26.15L134.96-26.15 129.81 0 126.06 0 121.51-23.5 117.01 0 113.31 0 108.06-26.15 110.81-26.15 115.21-2.3 119.91-26.15 123.31-26.15 127.91-2.3 132.31-26.15ZM163.26-5Q163.26-3.4 163.69-2.63 164.11-1.85 165.01-1.4L165.01-1.4 164.41 0.55Q162.81 0.15 161.96-0.8 161.11-1.75 160.86-3.55L160.86-3.55Q158.51 0.55 154.31 0.55L154.31 0.55Q151.21 0.55 149.36-1.6 147.51-3.75 147.51-7.25L147.51-7.25Q147.51-11.35 149.99-13.53 152.46-15.7 157.06-15.7L157.06-15.7 160.51-15.7 160.51-18.7Q160.51-21.55 159.39-22.95 158.26-24.35 155.86-24.35L155.86-24.35Q153.11-24.35 149.86-22.95L149.86-22.95 149.06-24.95Q152.81-26.7 156.11-26.7L156.11-26.7Q159.71-26.7 161.49-24.68 163.26-22.65 163.26-18.9L163.26-18.9 163.26-5ZM154.76-1.7Q158.56-1.7 160.51-6.55L160.51-6.55 160.51-13.65 157.31-13.65Q153.81-13.65 152.14-12.1 150.46-10.55 150.46-7.35L150.46-7.35Q150.46-4.6 151.59-3.15 152.71-1.7 154.76-1.7L154.76-1.7ZM189.52-26.7Q190.42-26.7 191.52-26.4L191.52-26.4 191.02-23.8Q190.12-24.05 189.22-24.05L189.22-24.05Q187.07-24.05 185.72-22.18 184.37-20.3 183.52-16.5L183.52-16.5 183.52 0 180.72 0 180.72-26.15 183.12-26.15 183.37-20.9Q184.32-23.85 185.82-25.28 187.32-26.7 189.52-26.7L189.52-26.7ZM220.92-14.05Q220.92-12.95 220.82-11.95L220.82-11.95 206.52-11.95Q206.72-6.55 208.39-4.2 210.07-1.85 212.97-1.85L212.97-1.85Q214.67-1.85 215.97-2.43 217.27-3 218.67-4.25L218.67-4.25 220.07-2.6Q218.52-1.05 216.79-0.25 215.07 0.55 212.92 0.55L212.92 0.55Q208.57 0.55 206.09-2.88 203.62-6.3 203.62-12.85L203.62-12.85Q203.62-19.5 205.99-23.1 208.37-26.7 212.52-26.7L212.52-26.7Q216.62-26.7 218.77-23.48 220.92-20.25 220.92-14.05L220.92-14.05ZM218.17-14.15L218.17-14.95Q218.17-19.65 216.77-22 215.37-24.35 212.52-24.35L212.52-24.35Q206.87-24.35 206.52-14.15L206.52-14.15 218.17-14.15ZM269.52-37.15L272.32-36.8 272.32 0 269.87 0 269.62-3.8Q267.37 0.55 263.37 0.55L263.37 0.55Q259.47 0.55 257.3-3 255.12-6.55 255.12-12.95L255.12-12.95Q255.12-17.1 256.17-20.23 257.22-23.35 259.15-25.03 261.07-26.7 263.62-26.7L263.62-26.7Q267.27-26.7 269.52-23.3L269.52-23.3 269.52-37.15ZM263.72-1.8Q265.62-1.8 267.02-3 268.42-4.2 269.52-6.5L269.52-6.5 269.52-20.4Q267.27-24.35 264.02-24.35L264.02-24.35Q261.27-24.35 259.67-21.48 258.07-18.6 258.07-13L258.07-13Q258.12-7.4 259.6-4.6 261.07-1.8 263.72-1.8L263.72-1.8ZM305.43-14.05Q305.43-12.95 305.33-11.95L305.33-11.95 291.03-11.95Q291.23-6.55 292.9-4.2 294.58-1.85 297.48-1.85L297.48-1.85Q299.18-1.85 300.48-2.43 301.78-3 303.18-4.25L303.18-4.25 304.58-2.6Q303.03-1.05 301.3-0.25 299.58 0.55 297.43 0.55L297.43 0.55Q293.08 0.55 290.6-2.88 288.13-6.3 288.13-12.85L288.13-12.85Q288.13-19.5 290.5-23.1 292.88-26.7 297.03-26.7L297.03-26.7Q301.13-26.7 303.28-23.48 305.43-20.25 305.43-14.05L305.43-14.05ZM302.68-14.15L302.68-14.95Q302.68-19.65 301.28-22 299.88-24.35 297.03-24.35L297.03-24.35Q291.38-24.35 291.03-14.15L291.03-14.15 302.68-14.15ZM333.08-26.15L335.88-26.15 328.58 0 325.18 0 317.58-26.15 320.48-26.15 326.88-2.45 333.08-26.15ZM365.58-14.05Q365.58-12.95 365.48-11.95L365.48-11.95 351.18-11.95Q351.38-6.55 353.06-4.2 354.73-1.85 357.63-1.85L357.63-1.85Q359.33-1.85 360.63-2.43 361.93-3 363.33-4.25L363.33-4.25 364.73-2.6Q363.18-1.05 361.46-0.25 359.73 0.55 357.58 0.55L357.58 0.55Q353.23 0.55 350.76-2.88 348.28-6.3 348.28-12.85L348.28-12.85Q348.28-19.5 350.66-23.1 353.03-26.7 357.18-26.7L357.18-26.7Q361.28-26.7 363.43-23.48 365.58-20.25 365.58-14.05L365.58-14.05ZM362.83-14.15L362.83-14.95Q362.83-19.65 361.43-22 360.03-24.35 357.18-24.35L357.18-24.35Q351.53-24.35 351.18-14.15L351.18-14.15 362.83-14.15ZM384.88 0.55Q383.08 0.55 381.98-0.63 380.88-1.8 380.88-3.85L380.88-3.85 380.88-36.8 383.68-37.15 383.68-3.95Q383.68-1.85 385.38-1.85L385.38-1.85Q386.08-1.85 386.78-2.15L386.78-2.15 387.48-0.15Q386.33 0.55 384.88 0.55L384.88 0.55ZM409.54-26.7Q413.99-26.7 416.39-23.28 418.79-19.85 418.79-13.15L418.79-13.15Q418.79-6.6 416.31-3.03 413.84 0.55 409.49 0.55L409.49 0.55Q405.14 0.55 402.71-3 400.29-6.55 400.29-13.05L400.29-13.05Q400.29-19.65 402.74-23.18 405.19-26.7 409.54-26.7L409.54-26.7ZM409.54-24.3Q403.24-24.3 403.24-13.05L403.24-13.05Q403.24-1.8 409.49-1.8L409.49-1.8Q415.84-1.8 415.84-13.15L415.84-13.15Q415.84-18.9 414.24-21.6 412.64-24.3 409.54-24.3L409.54-24.3ZM443.84-26.7Q447.64-26.7 449.64-23.3 451.64-19.9 451.64-13.2L451.64-13.2Q451.64-6.6 449.46-3.03 447.29 0.55 443.39 0.55L443.39 0.55Q441.49 0.55 439.99-0.4 438.49-1.35 437.39-2.95L437.39-2.95 437.39 9.85 434.59 10.25 434.59-26.15 437.04-26.15 437.24-22.5Q439.79-26.7 443.84-26.7L443.84-26.7ZM442.94-1.85Q448.64-1.85 448.64-13.2L448.64-13.2Q448.64-19 447.31-21.68 445.99-24.35 443.34-24.35L443.34-24.35Q439.94-24.35 437.39-19.95L437.39-19.95 437.39-5.75Q439.69-1.85 442.94-1.85L442.94-1.85ZM483.09-14.05Q483.09-12.95 482.99-11.95L482.99-11.95 468.69-11.95Q468.89-6.55 470.57-4.2 472.24-1.85 475.14-1.85L475.14-1.85Q476.84-1.85 478.14-2.43 479.44-3 480.84-4.25L480.84-4.25 482.24-2.6Q480.69-1.05 478.97-0.25 477.24 0.55 475.09 0.55L475.09 0.55Q470.74 0.55 468.27-2.88 465.79-6.3 465.79-12.85L465.79-12.85Q465.79-19.5 468.17-23.1 470.54-26.7 474.69-26.7L474.69-26.7Q478.79-26.7 480.94-23.48 483.09-20.25 483.09-14.05L483.09-14.05ZM480.34-14.15L480.34-14.95Q480.34-19.65 478.94-22 477.54-24.35 474.69-24.35L474.69-24.35Q469.04-24.35 468.69-14.15L468.69-14.15 480.34-14.15ZM507.44-26.7Q508.34-26.7 509.44-26.4L509.44-26.4 508.94-23.8Q508.04-24.05 507.14-24.05L507.14-24.05Q504.99-24.05 503.64-22.18 502.29-20.3 501.44-16.5L501.44-16.5 501.44 0 498.64 0 498.64-26.15 501.04-26.15 501.29-20.9Q502.24-23.85 503.74-25.28 505.24-26.7 507.44-26.7L507.44-26.7Z" opacity="1" transform="matrix(1,0,0,1,0,0)" fill="#b19dd0" class="slogan-text-1" data-fill-palette-color="secondary" id="text-1"></path></svg></g></svg></g></svg></g></svg></g><g></g></svg></g></svg></g></svg></g></svg></g><defs></defs></svg><rect width="320" height="360" fill="none" stroke="none" visibility="hidden"></rect></g></svg></g></svg>