<?xml version="1.0" encoding="iso-8859-1"?>
<!-- Uploaded to: SVG Repo, www.svgrepo.com, Generator: SVG Repo Mixer Tools -->
<svg height="800px" width="800px" version="1.1" id="Layer_1" xmlns="http://www.w3.org/2000/svg" xmlns:xlink="http://www.w3.org/1999/xlink" 
	 viewBox="0 0 480 480" xml:space="preserve">
<g>
	<path style="fill:#FFFFFF;" d="M456,472h-16c-8.84,0-16-7.16-16-16v-64c0-8.84,7.16-16,16-16h16c8.84,0,16,7.16,16,16v64
		C472,464.84,464.84,472,456,472z"/>
	<path style="fill:#FFFFFF;" d="M376,472H24c-8.84,0-16-7.16-16-16v-64c0-8.84,7.16-16,16-16h352c8.84,0,16,7.16,16,16v64
		C392,464.84,384.84,472,376,472z"/>
</g>
<path id="SVGCleanerId_0" style="fill:#6FA0E3;" d="M456,264H24c-8.84,0-16-7.16-16-16v-32h464v32C472,256.84,464.84,264,456,264z"
	/>
<g>
	<path id="SVGCleanerId_0_1_" style="fill:#6FA0E3;" d="M456,264H24c-8.84,0-16-7.16-16-16v-32h464v32
		C472,256.84,464.84,264,456,264z"/>
</g>
<path id="SVGCleanerId_1" style="fill:#FFFFFF;" d="M472,216H8V24c0-8.84,7.16-16,16-16h432c8.84,0,16,7.16,16,16V216z"/>
<g>
	<path id="SVGCleanerId_1_1_" style="fill:#FFFFFF;" d="M472,216H8V24c0-8.84,7.16-16,16-16h432c8.84,0,16,7.16,16,16V216z"/>
</g>
<g>
	<polygon style="fill:#6FA0E3;" points="272,344 208,344 192,264 288,264 	"/>
	<polygon style="fill:#6FA0E3;" points="272,344 208,344 192,264 288,264 	"/>
</g>
<g>
	<path style="fill:#4D4D4D;" d="M472,224H8c-4.424,0-8-3.576-8-8V24C0,10.768,10.768,0,24,0h432c13.232,0,24,10.768,24,24v192
		C480,220.424,476.424,224,472,224z M16,208h448V24c0-4.416-3.584-8-8-8H24c-4.416,0-8,3.584-8,8V208z"/>
	<path style="fill:#4D4D4D;" d="M456,368h-16c-13.232,0-24,10.768-24,24v64c0,13.232,10.768,24,24,24h16c13.232,0,24-10.768,24-24
		v-64C480,378.768,469.232,368,456,368z M464,456c0,4.416-3.584,8-8,8h-16c-4.416,0-8-3.584-8-8v-64c0-4.416,3.584-8,8-8h16
		c4.416,0,8,3.584,8,8V456z"/>
	<path style="fill:#4D4D4D;" d="M376,368H24c-13.232,0-24,10.768-24,24v64c0,13.232,10.768,24,24,24h352c13.232,0,24-10.768,24-24
		v-64C400,378.768,389.232,368,376,368z M384,456c0,4.416-3.584,8-8,8H24c-4.416,0-8-3.584-8-8v-64c0-4.416,3.584-8,8-8h352
		c4.416,0,8,3.584,8,8V456z"/>
	<path style="fill:#4D4D4D;" d="M48,400h-8c-4.424,0-8,3.576-8,8s3.576,8,8,8h8c4.424,0,8-3.576,8-8S52.424,400,48,400z"/>
	<path style="fill:#4D4D4D;" d="M48,432h-8c-4.424,0-8,3.576-8,8s3.576,8,8,8h8c4.424,0,8-3.576,8-8S52.424,432,48,432z"/>
	<path style="fill:#4D4D4D;" d="M88,416h8c4.424,0,8-3.576,8-8s-3.576-8-8-8h-8c-4.424,0-8,3.576-8,8S83.576,416,88,416z"/>
	<path style="fill:#4D4D4D;" d="M240,432H88c-4.424,0-8,3.576-8,8s3.576,8,8,8h152c4.424,0,8-3.576,8-8S244.424,432,240,432z"/>
	<path style="fill:#4D4D4D;" d="M136,416h8c4.424,0,8-3.576,8-8s-3.576-8-8-8h-8c-4.424,0-8,3.576-8,8S131.576,416,136,416z"/>
	<path style="fill:#4D4D4D;" d="M184,416h8c4.424,0,8-3.576,8-8s-3.576-8-8-8h-8c-4.424,0-8,3.576-8,8S179.576,416,184,416z"/>
	<path style="fill:#4D4D4D;" d="M240,400h-8c-4.424,0-8,3.576-8,8s3.576,8,8,8h8c4.424,0,8-3.576,8-8S244.424,400,240,400z"/>
	<path style="fill:#4D4D4D;" d="M288,400h-8c-4.424,0-8,3.576-8,8s3.576,8,8,8h8c4.424,0,8-3.576,8-8S292.424,400,288,400z"/>
	<path style="fill:#4D4D4D;" d="M288,432h-8c-4.424,0-8,3.576-8,8s3.576,8,8,8h8c4.424,0,8-3.576,8-8S292.424,432,288,432z"/>
	<path style="fill:#4D4D4D;" d="M328,416h24c4.424,0,8-3.576,8-8s-3.576-8-8-8h-24c-4.424,0-8,3.576-8,8S323.576,416,328,416z"/>
	<path style="fill:#4D4D4D;" d="M360,432h-32c-4.424,0-8,3.576-8,8s3.576,8,8,8h32c4.424,0,8-3.576,8-8S364.424,432,360,432z"/>
	<path style="fill:#4D4D4D;" d="M456,0H24C10.768,0,0,10.768,0,24v224c0,13.232,10.768,24,24,24h161.44l12.8,64H168
		c-4.424,0-8,3.576-8,8s3.576,8,8,8h40h64h40c4.424,0,8-3.576,8-8s-3.576-8-8-8h-30.24l12.8-64H456c13.232,0,24-10.768,24-24V24
		C480,10.768,469.232,0,456,0z M16,24c0-4.416,3.584-8,8-8h432c4.416,0,8,3.584,8,8v184H16V24z M265.448,336H214.56l-12.8-64h76.488
		L265.448,336z M464,248c0,4.416-3.584,8-8,8H288h-96H24c-4.416,0-8-3.584-8-8v-24h448V248z"/>
	<path style="fill:#4D4D4D;" d="M432,40h-64c-4.424,0-8,3.576-8,8s3.576,8,8,8h64c4.424,0,8-3.576,8-8S436.424,40,432,40z"/>
	<path style="fill:#4D4D4D;" d="M336,40h-8c-4.424,0-8,3.576-8,8s3.576,8,8,8h8c4.424,0,8-3.576,8-8S340.424,40,336,40z"/>
	<circle style="fill:#4D4D4D;" cx="239.832" cy="296.16" r="7.832"/>
</g>
</svg>